<svg width="583" height="112" viewBox="0 0 583 112" fill="none" xmlns="http://www.w3.org/2000/svg">
<rect width="583" height="112" rx="56" fill="#FFD9E3"/>
<path d="M94.6591 73H90.2273L103.045 38.0909H107.409L120.227 73H115.795L105.364 43.6136H105.091L94.6591 73ZM96.2955 59.3636H114.159V63.1136H96.2955V59.3636ZM127.77 73L119.793 46.8182H124.02L129.679 66.8636H129.952L135.543 46.8182H139.838L145.361 66.7955H145.634L151.293 46.8182H155.52L147.543 73H143.588L137.861 52.8864H137.452L131.724 73H127.77ZM170.925 73.5455C168.402 73.5455 166.226 72.9886 164.396 71.875C162.578 70.75 161.175 69.1818 160.186 67.1705C159.209 65.1477 158.72 62.7955 158.72 60.1136C158.72 57.4318 159.209 55.0682 160.186 53.0227C161.175 50.9659 162.55 49.3636 164.311 48.2159C166.084 47.0568 168.152 46.4773 170.516 46.4773C171.879 46.4773 173.226 46.7045 174.555 47.1591C175.885 47.6136 177.095 48.3523 178.186 49.375C179.277 50.3864 180.146 51.7273 180.794 53.3977C181.442 55.0682 181.766 57.125 181.766 59.5682V61.2727H161.584V57.7955H177.675C177.675 56.3182 177.379 55 176.788 53.8409C176.209 52.6818 175.379 51.767 174.3 51.0966C173.232 50.4261 171.97 50.0909 170.516 50.0909C168.913 50.0909 167.527 50.4886 166.357 51.2841C165.197 52.0682 164.305 53.0909 163.68 54.3523C163.055 55.6136 162.743 56.9659 162.743 58.4091V60.7273C162.743 62.7045 163.084 64.3807 163.766 65.7557C164.459 67.1193 165.419 68.1591 166.646 68.875C167.874 69.5795 169.3 69.9318 170.925 69.9318C171.982 69.9318 172.936 69.7841 173.788 69.4886C174.652 69.1818 175.396 68.7273 176.021 68.125C176.646 67.5114 177.129 66.75 177.47 65.8409L181.357 66.9318C180.947 68.25 180.26 69.4091 179.294 70.4091C178.328 71.3977 177.135 72.1705 175.714 72.7273C174.294 73.2727 172.697 73.5455 170.925 73.5455ZM206.43 52.6818L202.817 53.7045C202.589 53.1023 202.254 52.517 201.811 51.9489C201.379 51.3693 200.788 50.892 200.038 50.517C199.288 50.142 198.328 49.9545 197.158 49.9545C195.555 49.9545 194.22 50.3239 193.152 51.0625C192.095 51.7898 191.567 52.7159 191.567 53.8409C191.567 54.8409 191.93 55.6307 192.658 56.2102C193.385 56.7898 194.521 57.2727 196.067 57.6591L199.953 58.6136C202.294 59.1818 204.038 60.0511 205.186 61.2216C206.334 62.3807 206.908 63.875 206.908 65.7045C206.908 67.2045 206.476 68.5455 205.612 69.7273C204.76 70.9091 203.567 71.8409 202.033 72.5227C200.499 73.2045 198.714 73.5455 196.68 73.5455C194.01 73.5455 191.8 72.9659 190.05 71.8068C188.3 70.6477 187.192 68.9545 186.726 66.7273L190.544 65.7727C190.908 67.1818 191.595 68.2386 192.607 68.9432C193.629 69.6477 194.964 70 196.612 70C198.487 70 199.976 69.6023 201.078 68.8068C202.192 68 202.749 67.0341 202.749 65.9091C202.749 65 202.43 64.2386 201.794 63.625C201.158 63 200.18 62.5341 198.862 62.2273L194.499 61.2045C192.101 60.6364 190.339 59.7557 189.214 58.5625C188.101 57.358 187.544 55.8523 187.544 54.0455C187.544 52.5682 187.959 51.2614 188.788 50.125C189.629 48.9886 190.771 48.0966 192.214 47.4489C193.669 46.8011 195.317 46.4773 197.158 46.4773C199.749 46.4773 201.783 47.0455 203.26 48.1818C204.749 49.3182 205.805 50.8182 206.43 52.6818ZM223.599 73.5455C221.236 73.5455 219.162 72.983 217.378 71.858C215.605 70.733 214.219 69.1591 213.219 67.1364C212.23 65.1136 211.736 62.75 211.736 60.0455C211.736 57.3182 212.23 54.9375 213.219 52.9034C214.219 50.8693 215.605 49.2898 217.378 48.1648C219.162 47.0398 221.236 46.4773 223.599 46.4773C225.963 46.4773 228.031 47.0398 229.804 48.1648C231.588 49.2898 232.974 50.8693 233.963 52.9034C234.963 54.9375 235.463 57.3182 235.463 60.0455C235.463 62.75 234.963 65.1136 233.963 67.1364C232.974 69.1591 231.588 70.733 229.804 71.858C228.031 72.983 225.963 73.5455 223.599 73.5455ZM223.599 69.9318C225.395 69.9318 226.872 69.4716 228.031 68.5511C229.19 67.6307 230.048 66.4205 230.605 64.9205C231.162 63.4205 231.44 61.7955 231.44 60.0455C231.44 58.2955 231.162 56.6648 230.605 55.1534C230.048 53.642 229.19 52.4205 228.031 51.4886C226.872 50.5568 225.395 50.0909 223.599 50.0909C221.804 50.0909 220.327 50.5568 219.168 51.4886C218.009 52.4205 217.151 53.642 216.594 55.1534C216.037 56.6648 215.759 58.2955 215.759 60.0455C215.759 61.7955 216.037 63.4205 216.594 64.9205C217.151 66.4205 218.009 67.6307 219.168 68.5511C220.327 69.4716 221.804 69.9318 223.599 69.9318ZM241.604 73V46.8182H245.49V50.9091H245.831C246.376 49.5114 247.257 48.4261 248.473 47.6534C249.689 46.8693 251.149 46.4773 252.854 46.4773C254.581 46.4773 256.018 46.8693 257.166 47.6534C258.325 48.4261 259.229 49.5114 259.876 50.9091H260.149C260.82 49.5568 261.825 48.483 263.166 47.6875C264.507 46.8807 266.115 46.4773 267.99 46.4773C270.331 46.4773 272.246 47.2102 273.734 48.6761C275.223 50.1307 275.967 52.3977 275.967 55.4773V73H271.945V55.4773C271.945 53.5455 271.416 52.1648 270.359 51.3352C269.303 50.5057 268.058 50.0909 266.626 50.0909C264.786 50.0909 263.359 50.6477 262.348 51.7614C261.337 52.8636 260.831 54.2614 260.831 55.9545V73H256.74V55.0682C256.74 53.5795 256.257 52.3807 255.291 51.4716C254.325 50.5511 253.081 50.0909 251.558 50.0909C250.513 50.0909 249.536 50.3693 248.626 50.9261C247.729 51.483 247.001 52.2557 246.445 53.2443C245.899 54.2216 245.626 55.3523 245.626 56.6364V73H241.604ZM294.3 73.5455C291.777 73.5455 289.601 72.9886 287.771 71.875C285.953 70.75 284.55 69.1818 283.561 67.1705C282.584 65.1477 282.095 62.7955 282.095 60.1136C282.095 57.4318 282.584 55.0682 283.561 53.0227C284.55 50.9659 285.925 49.3636 287.686 48.2159C289.459 47.0568 291.527 46.4773 293.891 46.4773C295.254 46.4773 296.601 46.7045 297.93 47.1591C299.26 47.6136 300.47 48.3523 301.561 49.375C302.652 50.3864 303.521 51.7273 304.169 53.3977C304.817 55.0682 305.141 57.125 305.141 59.5682V61.2727H284.959V57.7955H301.05C301.05 56.3182 300.754 55 300.163 53.8409C299.584 52.6818 298.754 51.767 297.675 51.0966C296.607 50.4261 295.345 50.0909 293.891 50.0909C292.288 50.0909 290.902 50.4886 289.732 51.2841C288.572 52.0682 287.68 53.0909 287.055 54.3523C286.43 55.6136 286.118 56.9659 286.118 58.4091V60.7273C286.118 62.7045 286.459 64.3807 287.141 65.7557C287.834 67.1193 288.794 68.1591 290.021 68.875C291.249 69.5795 292.675 69.9318 294.3 69.9318C295.357 69.9318 296.311 69.7841 297.163 69.4886C298.027 69.1818 298.771 68.7273 299.396 68.125C300.021 67.5114 300.504 66.75 300.845 65.8409L304.732 66.9318C304.322 68.25 303.635 69.4091 302.669 70.4091C301.703 71.3977 300.51 72.1705 299.089 72.7273C297.669 73.2727 296.072 73.5455 294.3 73.5455ZM325.305 73V38.0909H329.533V55.4091H329.942L345.624 38.0909H351.146L336.487 53.8409L351.146 73H346.033L333.896 56.7727L329.533 61.6818V73H325.305ZM363.777 73.6136C362.118 73.6136 360.612 73.3011 359.26 72.6761C357.908 72.0398 356.834 71.125 356.038 69.9318C355.243 68.7273 354.845 67.2727 354.845 65.5682C354.845 64.0682 355.141 62.8523 355.732 61.9205C356.322 60.9773 357.112 60.2386 358.101 59.7045C359.089 59.1705 360.18 58.7727 361.374 58.5114C362.578 58.2386 363.788 58.0227 365.004 57.8636C366.595 57.6591 367.885 57.5057 368.874 57.4034C369.874 57.2898 370.601 57.1023 371.055 56.8409C371.521 56.5795 371.754 56.125 371.754 55.4773V55.3409C371.754 53.6591 371.294 52.3523 370.374 51.4205C369.464 50.4886 368.084 50.0227 366.232 50.0227C364.311 50.0227 362.805 50.4432 361.714 51.2841C360.624 52.125 359.857 53.0227 359.413 53.9773L355.595 52.6136C356.277 51.0227 357.186 49.7841 358.322 48.8977C359.47 48 360.72 47.375 362.072 47.0227C363.436 46.6591 364.777 46.4773 366.095 46.4773C366.936 46.4773 367.902 46.5795 368.993 46.7841C370.095 46.9773 371.158 47.3807 372.18 47.9943C373.214 48.608 374.072 49.5341 374.754 50.7727C375.436 52.0114 375.777 53.6705 375.777 55.75V73H371.754V69.4545H371.55C371.277 70.0227 370.822 70.6307 370.186 71.2784C369.55 71.9261 368.703 72.4773 367.646 72.9318C366.589 73.3864 365.3 73.6136 363.777 73.6136ZM364.391 70C365.982 70 367.322 69.6875 368.413 69.0625C369.516 68.4375 370.345 67.6307 370.902 66.642C371.47 65.6534 371.754 64.6136 371.754 63.5227V59.8409C371.584 60.0455 371.209 60.233 370.629 60.4034C370.061 60.5625 369.402 60.7045 368.652 60.8295C367.913 60.9432 367.192 61.0455 366.487 61.1364C365.794 61.2159 365.232 61.2841 364.8 61.3409C363.754 61.4773 362.777 61.6989 361.868 62.0057C360.97 62.3011 360.243 62.75 359.686 63.3523C359.141 63.9432 358.868 64.75 358.868 65.7727C358.868 67.1705 359.385 68.2273 360.419 68.9432C361.464 69.6477 362.788 70 364.391 70ZM387.142 57.25V73H383.119V46.8182H387.006V50.9091H387.347C387.96 49.5795 388.892 48.5114 390.142 47.7045C391.392 46.8864 393.006 46.4773 394.983 46.4773C396.756 46.4773 398.307 46.8409 399.636 47.5682C400.966 48.2841 402 49.375 402.739 50.8409C403.477 52.2955 403.847 54.1364 403.847 56.3636V73H399.824V56.6364C399.824 54.5795 399.29 52.9773 398.222 51.8295C397.153 50.6705 395.688 50.0909 393.824 50.0909C392.54 50.0909 391.392 50.3693 390.381 50.9261C389.381 51.483 388.591 52.2955 388.011 53.3636C387.432 54.4318 387.142 55.7273 387.142 57.25ZM411.743 73V38.0909H415.766V50.9773H416.107C416.402 50.5227 416.811 49.9432 417.334 49.2386C417.868 48.5227 418.629 47.8864 419.618 47.3295C420.618 46.7614 421.97 46.4773 423.675 46.4773C425.879 46.4773 427.822 47.0284 429.504 48.1307C431.186 49.233 432.499 50.7955 433.442 52.8182C434.385 54.8409 434.857 57.2273 434.857 59.9773C434.857 62.75 434.385 65.1534 433.442 67.1875C432.499 69.2102 431.192 70.7784 429.521 71.892C427.851 72.9943 425.925 73.5455 423.743 73.5455C422.061 73.5455 420.714 73.267 419.703 72.7102C418.692 72.142 417.913 71.5 417.368 70.7841C416.822 70.0568 416.402 69.4545 416.107 68.9773H415.629V73H411.743ZM415.697 59.9091C415.697 61.8864 415.987 63.6307 416.567 65.142C417.146 66.642 417.993 67.8182 419.107 68.6705C420.22 69.5114 421.584 69.9318 423.197 69.9318C424.879 69.9318 426.283 69.4886 427.408 68.6023C428.544 67.7045 429.396 66.5 429.964 64.9886C430.544 63.4659 430.834 61.7727 430.834 59.9091C430.834 58.0682 430.55 56.4091 429.982 54.9318C429.425 53.4432 428.578 52.267 427.442 51.4034C426.317 50.5284 424.902 50.0909 423.197 50.0909C421.561 50.0909 420.186 50.5057 419.072 51.3352C417.959 52.1534 417.118 53.3011 416.55 54.7784C415.982 56.2443 415.697 57.9545 415.697 59.9091ZM448.714 73.6136C447.055 73.6136 445.55 73.3011 444.197 72.6761C442.845 72.0398 441.771 71.125 440.976 69.9318C440.18 68.7273 439.783 67.2727 439.783 65.5682C439.783 64.0682 440.078 62.8523 440.669 61.9205C441.26 60.9773 442.05 60.2386 443.038 59.7045C444.027 59.1705 445.118 58.7727 446.311 58.5114C447.516 58.2386 448.726 58.0227 449.942 57.8636C451.533 57.6591 452.822 57.5057 453.811 57.4034C454.811 57.2898 455.538 57.1023 455.993 56.8409C456.459 56.5795 456.692 56.125 456.692 55.4773V55.3409C456.692 53.6591 456.232 52.3523 455.311 51.4205C454.402 50.4886 453.021 50.0227 451.169 50.0227C449.249 50.0227 447.743 50.4432 446.652 51.2841C445.561 52.125 444.794 53.0227 444.351 53.9773L440.533 52.6136C441.214 51.0227 442.124 49.7841 443.26 48.8977C444.408 48 445.658 47.375 447.01 47.0227C448.374 46.6591 449.714 46.4773 451.033 46.4773C451.874 46.4773 452.839 46.5795 453.93 46.7841C455.033 46.9773 456.095 47.3807 457.118 47.9943C458.152 48.608 459.01 49.5341 459.692 50.7727C460.374 52.0114 460.714 53.6705 460.714 55.75V73H456.692V69.4545H456.487C456.214 70.0227 455.76 70.6307 455.124 71.2784C454.487 71.9261 453.641 72.4773 452.584 72.9318C451.527 73.3864 450.237 73.6136 448.714 73.6136ZM449.328 70C450.919 70 452.26 69.6875 453.351 69.0625C454.453 68.4375 455.283 67.6307 455.839 66.642C456.408 65.6534 456.692 64.6136 456.692 63.5227V59.8409C456.521 60.0455 456.146 60.233 455.567 60.4034C454.999 60.5625 454.339 60.7045 453.589 60.8295C452.851 60.9432 452.129 61.0455 451.425 61.1364C450.732 61.2159 450.169 61.2841 449.737 61.3409C448.692 61.4773 447.714 61.6989 446.805 62.0057C445.908 62.3011 445.18 62.75 444.624 63.3523C444.078 63.9432 443.805 64.75 443.805 65.7727C443.805 67.1705 444.322 68.2273 445.357 68.9432C446.402 69.6477 447.726 70 449.328 70ZM472.08 57.25V73H468.057V46.8182H471.943V50.9091H472.284C472.898 49.5795 473.83 48.5114 475.08 47.7045C476.33 46.8864 477.943 46.4773 479.92 46.4773C481.693 46.4773 483.244 46.8409 484.574 47.5682C485.903 48.2841 486.938 49.375 487.676 50.8409C488.415 52.2955 488.784 54.1364 488.784 56.3636V73H484.761V56.6364C484.761 54.5795 484.227 52.9773 483.159 51.8295C482.091 50.6705 480.625 50.0909 478.761 50.0909C477.477 50.0909 476.33 50.3693 475.318 50.9261C474.318 51.483 473.528 52.2955 472.949 53.3636C472.369 54.4318 472.08 55.7273 472.08 57.25Z" fill="#5A3E4A"/>
</svg>
